<svg width="473" height="49" viewBox="0 0 473 49" fill="none" xmlns="http://www.w3.org/2000/svg">
<g clip-path="url(#clip0_579_1291)">
<path d="M184.969 0H184.832H172.685H172.548V11.1992V12.1819V18.2826V24.3735V30.4645H172.685H184.832H184.969H197.263V36.5554H184.969H172.685V48.747H184.969H197.263H209.548V42.6463V36.5554V30.4645V18.2826H197.263H184.969H184.832V12.1819H184.969H197.263H209.548V0H197.263H184.969Z" fill="#08BAA8"/>
<path d="M228.631 0H216.347V11.1992V12.1819V18.2826V24.3735V30.4645H216.376V36.5554H216.347V48.747H228.631H240.915H253.199V36.5554H240.915H228.67V30.4645H228.631V24.3735V18.2826V12.1819H240.915H253.199V0H240.915H228.631Z" fill="#08BAA8"/>
<path d="M405.378 0H392.319V30.4645H392.358V36.5554H392.319V48.7373H404.603V42.6463H404.642V30.4645H404.603V30.445H429.956V0H405.378ZM417.662 18.2631H404.603V12.1916H417.662V18.2631Z" fill="#08BAA8"/>
<path d="M460.716 12.1916H473V0H460.716H448.432H436.138V12.1916V18.2826V24.3735V30.4645H436.177V36.5554H436.138V48.747H448.432H460.716H473V36.5554H460.716H448.461V30.4645H460.716H473V18.2826H460.716H448.432V12.1916H460.716Z" fill="#08BAA8"/>
<path d="M259.999 48.6108H386.53V0.126465H259.999V48.6108ZM271.616 20.248L374.913 12.9116V35.8256L271.616 28.5379V20.2383V20.248Z" fill="#08BAA8"/>
<path d="M0 24.5584V24.5C0 10.0802 10.7045 0 25.5593 0H25.6182C31.6426 0 36.9997 1.76112 41.4346 4.68983L39.0602 9.61318C34.8608 6.91799 30.4848 5.68229 25.9126 5.68229H25.8537C15.63 5.68229 6.50512 12.1916 6.50512 24.5V24.5584C6.56399 36.8084 15.5711 43.3761 25.7948 43.3761H25.8537C30.4161 43.3761 34.8608 42.1501 39.0602 39.4452L41.4346 44.4269C37.1763 47.1805 32.0056 49 25.6182 49H25.5593C10.7045 49 0.0588699 38.9782 0 24.5584Z" fill="#08BAA8"/>
<path d="M41.4346 24.4416V24.3832C41.4346 10.8392 50.7458 0 65.7086 0H65.7675C80.74 0 90.1102 10.8489 90.1102 24.3832V24.4416C90.0513 37.9273 80.6812 49 65.7675 49H65.7086C50.8047 49 41.4346 37.9176 41.4346 24.4416ZM65.8361 43.3177C76.6093 43.3177 84.0269 35.1154 84.0269 24.3832V24.3249C84.0269 13.5344 76.7271 5.68229 65.8361 5.68229H65.7184C54.7686 5.68229 47.4687 13.5344 47.4687 24.3249V24.3832C47.5276 35.1056 54.8275 43.3177 65.7184 43.3177H65.8361Z" fill="#08BAA8"/>
<path d="M134.164 24.3249V24.3832C134.106 39.4063 123.823 49 107.516 49H93.5835V0.0681152H107.516C123.882 0.0681152 134.164 9.47697 134.164 24.3249ZM127.65 24.3249C127.65 12.6781 120.409 5.68229 108.301 5.68229H99.5392V43.3956H108.301C120.35 43.3956 127.591 36.2732 127.65 24.393V24.3346V24.3249Z" fill="#08BAA8"/>
<path d="M137.932 0.0681152H167.867V5.68229H143.898V20.9486H165.562V26.5628H143.898V43.3956H168.113V49.0097H137.932V0.0681152Z" fill="#08BAA8"/>
</g>
<defs>
<clipPath id="clip0_579_1291">
<rect width="473" height="49" fill="white"/>
</clipPath>
</defs>
</svg>
