<svg width="239" height="25" viewBox="0 0 239 25" fill="none" xmlns="http://www.w3.org/2000/svg">
<path d="M87.1858 0V15.5431H99.6742V18.6507H87.2552V24.8709H105.881V9.32784H93.3928V6.21525H105.881V0H87.1858Z" fill="#232323"/>
<path d="M109.317 0V15.5431H109.332V18.6507H109.317V24.8709H127.938V18.6507H115.544V15.5431H115.524V6.21525H127.938V0H109.317Z" fill="#232323"/>
<path d="M198.233 0V15.5431H198.253V18.6507H198.233V24.866H204.44V21.7583H204.46V15.5431H204.44V15.5332H217.251V0H198.233ZM211.039 9.31791H204.44V6.22021H211.039V9.31791Z" fill="#232323"/>
<path d="M239 6.22021V0H220.374V15.5431H220.394V18.6507H220.374V24.8709H239V18.6507H226.601V15.5431H239V9.32784H226.586V6.22021H239Z" fill="#232323"/>
<path d="M131.374 24.8014H195.308V0.0645353H131.374V24.8014ZM137.244 10.3306L189.438 6.58757V18.2784L137.244 14.5602V10.3257V10.3306Z" fill="#232323"/>
<path d="M0 12.5298V12.5C0 5.14297 5.40883 0 12.9148 0H12.9445C15.9885 0 18.6954 0.898531 20.9363 2.39277L19.7365 4.90469C17.6146 3.52959 15.4035 2.89913 13.0932 2.89913H13.0635C7.89759 2.89913 3.28694 6.22021 3.28694 12.5V12.5298C3.31669 18.7798 7.86784 22.1307 13.0338 22.1307H13.0635C15.3688 22.1307 17.6146 21.5052 19.7365 20.1251L20.9363 22.6668C18.7847 24.0717 16.172 25 12.9445 25H12.9148C5.40883 25 0.0297461 19.8868 0 12.5298Z" fill="#232323"/>
<path d="M20.9363 12.4702V12.4404C20.9363 5.53018 25.6411 0 33.2016 0H33.2313C40.7968 0 45.5314 5.53515 45.5314 12.4404V12.4702C45.5016 19.3507 40.767 25 33.2313 25H33.2016C25.6709 25 20.9363 19.3457 20.9363 12.4702ZM33.2661 22.1009C38.7096 22.1009 42.4576 17.916 42.4576 12.4404V12.4106C42.4576 6.90528 38.7691 2.89913 33.2661 2.89913H33.2066C27.6738 2.89913 23.9853 6.90528 23.9853 12.4106V12.4404C24.015 17.911 27.7035 22.1009 33.2066 22.1009H33.2661Z" fill="#232323"/>
<path d="M67.7914 12.4106V12.4404C67.7616 20.1052 62.566 25 54.3263 25H47.2864V0.0347498H54.3263C62.5957 0.0347498 67.7914 4.83519 67.7914 12.4106ZM64.4995 12.4106C64.4995 6.46843 60.8407 2.89913 54.7229 2.89913H50.2957V22.1406H54.7229C60.8109 22.1406 64.4697 18.5068 64.4995 12.4454V12.4106Z" fill="#232323"/>
<path d="M69.6951 0.0347498H84.821V2.89913H72.7094V10.688H83.656V13.5524H72.7094V22.1406H84.9449V25.005H69.6951V0.0347498Z" fill="#232323"/>
</svg>
