<svg width="1619" height="362" viewBox="0 0 1619 362" fill="none" xmlns="http://www.w3.org/2000/svg">
<g clip-path="url(#clip0_706_3320)">
<path d="M1619 362V0L0 115.13V246.187L1619 362Z" fill="#08BAA8"/>
<path d="M22.985 206.806C26.3082 214.294 30.9152 220.909 36.7307 226.652C42.5462 232.395 49.3435 237.047 57.1982 240.537C65.0528 244.099 73.4362 246.207 82.3482 246.861C92.2421 247.515 101.154 246.497 108.933 243.662C116.712 240.755 123.283 236.538 128.645 231.014C120.489 220.037 112.407 209.278 104.251 198.81C102.363 201.5 99.7946 203.826 96.4715 205.716C93.1484 207.606 89.2966 208.478 84.6895 208.406C81.4419 208.333 78.4209 207.606 75.4754 206.37C72.6054 205.062 70.0375 203.317 67.8473 200.991C65.657 198.665 63.9199 195.975 62.636 192.849C61.3521 189.723 60.7479 186.234 60.7479 182.236C60.7479 178.238 61.3521 174.676 62.5605 171.477C63.7689 168.279 65.506 165.443 67.6207 163.117C69.811 160.791 72.3033 158.974 75.2488 157.738C78.1188 156.429 81.2909 155.775 84.614 155.702C88.7679 155.557 92.4687 156.284 95.7918 157.738C99.1149 159.264 101.909 161.518 104.175 164.498C112.332 153.958 120.413 143.126 128.57 132.077C123.132 126.916 116.335 122.99 108.178 120.373C100.021 117.756 91.4113 116.811 82.2727 117.465C73.3607 118.12 64.9773 120.228 57.1226 123.644C49.268 127.134 42.4706 131.713 36.6552 137.383C30.8397 143.054 26.3082 149.669 22.9095 157.229C19.5864 164.789 17.9248 173.076 17.9248 182.163C17.9248 191.25 19.5864 199.392 22.9095 206.879L22.985 206.806Z" fill="#232323"/>
<path d="M137.33 209.787C140.654 218.438 145.261 225.925 151.152 232.395C156.967 238.792 163.915 244.026 171.997 247.952C180.002 251.877 188.688 254.203 198.053 254.858C207.418 255.512 216.104 254.349 224.109 251.296C232.115 248.242 239.139 243.517 245.03 237.12C250.921 230.723 255.528 222.727 258.927 213.204C262.25 203.681 263.911 192.995 263.911 181.291C263.911 169.587 262.25 158.974 258.927 149.669C255.604 140.364 250.921 132.586 245.03 126.407C239.139 120.228 232.191 115.648 224.109 112.74C216.104 109.833 207.418 108.742 198.053 109.396C188.688 110.051 180.002 112.304 171.997 116.157C163.991 119.937 157.043 125.026 151.152 131.277C145.336 137.529 140.729 144.871 137.33 153.304C134.007 161.809 132.346 171.114 132.346 181.436C132.346 191.759 134.007 201.209 137.33 209.86V209.787ZM176.377 169.442C177.51 165.807 179.172 162.754 181.211 160.21C183.25 157.665 185.742 155.63 188.688 154.176C191.558 152.649 194.73 151.85 198.053 151.777C201.376 151.704 204.473 152.286 207.343 153.667C210.213 155.048 212.629 156.938 214.82 159.483C216.934 162.027 218.596 165.153 219.729 168.933C220.862 172.713 221.466 176.857 221.466 181.364C221.466 185.871 220.862 190.232 219.729 194.085C218.596 197.938 216.934 201.209 214.82 203.899C212.705 206.661 210.213 208.697 207.343 210.151C204.473 211.605 201.376 212.259 198.053 212.113C194.73 212.041 191.558 211.168 188.688 209.642C185.818 208.115 183.326 205.934 181.211 203.245C179.172 200.555 177.51 197.356 176.377 193.649C175.244 189.942 174.64 185.871 174.64 181.436C174.64 177.002 175.244 173.149 176.377 169.515V169.442Z" fill="#232323"/>
<path d="M280.603 256.384L318.365 258.855L316.704 185.507H317.384C328.335 209.932 339.21 235.084 350.162 260.891L390.794 263.581V100.527L353.032 102.999L354.693 183.181H354.013C342.76 156.429 331.507 130.405 320.254 105.18L280.603 107.797V256.384Z" fill="#232323"/>
<path d="M471.909 144.58L500.987 143.78V93.4033L403.03 99.8731V146.616L432.107 145.816V266.488L471.909 269.105V144.58Z" fill="#232323"/>
<path d="M489.431 270.123L531.575 272.886L537.39 246.498L575.002 248.242L581.195 276.157L624.471 278.992C609.064 213.422 593.732 149.814 578.325 88.2422L536.031 91.0046C520.473 152.722 504.914 212.477 489.356 270.123H489.431ZM566.166 199.973L546.906 199.755L556.574 154.176L566.09 199.973H566.166Z" fill="#232323"/>
<path d="M629.531 223.962C632.854 236.611 637.462 247.588 643.277 257.038C649.093 266.489 655.89 273.976 663.745 279.573C671.599 285.098 679.983 288.297 688.895 288.878C698.788 289.533 707.7 287.424 715.48 282.409C723.259 277.393 729.83 270.341 735.192 261.182L710.797 209.278C708.909 213.712 706.341 217.493 703.018 220.691C699.695 223.89 695.843 225.416 691.236 225.271C687.988 225.198 684.967 224.108 682.022 222C679.152 219.964 676.584 216.984 674.394 213.131C672.203 209.351 670.466 204.844 669.182 199.61C667.898 194.449 667.294 188.56 667.294 182.018C667.294 175.475 667.898 169.514 669.107 164.135C670.315 158.756 672.052 154.176 674.167 150.323C676.357 146.47 678.85 143.563 681.795 141.454C684.665 139.419 687.837 138.329 691.16 138.183C695.314 138.038 699.015 139.274 702.338 141.745C705.661 144.217 708.456 147.997 710.721 152.94L735.116 100.673C729.678 92.095 722.881 85.5526 714.724 80.9728C706.568 76.3931 697.958 74.4303 688.819 75.0846C679.907 75.7388 671.524 78.792 663.669 84.2441C655.814 89.6961 649.017 97.1836 643.202 106.488C637.386 115.866 632.855 126.843 629.456 139.564C626.133 152.286 624.471 166.389 624.471 181.872C624.471 197.356 626.133 211.095 629.456 223.744L629.531 223.962Z" fill="#232323"/>
<path d="M804.298 135.13L833.375 134.33V71.5225L735.418 77.9922V137.165L764.496 136.366V288.297L804.298 290.914V135.13Z" fill="#232323"/>
<path d="M960.787 300.073C967.736 295.421 973.627 288.66 978.234 279.864C982.916 271.068 986.466 260.528 988.883 248.17C991.3 235.884 992.508 222.509 992.508 208.115V61.0547L952.857 63.6717V198.883C952.857 210.223 951.497 219.092 948.779 225.416C946.06 231.668 942.132 234.721 937.148 234.576C932.163 234.43 928.236 231.159 925.517 224.835C922.798 218.51 921.438 209.787 921.438 198.592V65.7071L881.636 68.3241V206.516C881.636 220.037 882.769 232.613 884.959 244.39C887.225 256.166 890.548 266.489 895.155 275.357C899.762 284.226 905.427 291.423 912.3 296.875C919.173 302.327 927.178 305.453 936.468 306.107C945.682 306.761 953.839 304.726 960.787 300.073Z" fill="#232323"/>
<path d="M1069.39 309.814C1075.21 306.543 1080.42 301.236 1085.03 293.967C1089.63 286.697 1093.41 277.393 1096.2 266.052C1099 254.712 1100.43 241.336 1100.43 225.852C1100.43 212.549 1099.15 201.427 1096.58 192.558C1094.01 183.617 1090.77 176.13 1086.76 170.023C1082.84 163.917 1078.46 159.046 1073.85 155.266C1069.17 151.559 1064.71 148.288 1060.48 145.525C1056.33 142.763 1053.38 140.509 1051.57 138.619C1049.76 136.802 1048.77 133.967 1048.77 130.187C1048.77 126.189 1049.68 123.281 1051.42 121.463C1053.16 119.646 1055.57 118.701 1058.44 118.556C1061.54 118.483 1065.09 120.155 1068.94 123.717C1072.87 127.279 1076.12 132.586 1078.83 139.71L1103.53 84.3894C1097.41 72.3949 1090.31 63.4535 1082.23 57.4925C1074.15 51.5316 1066.22 48.9146 1058.44 49.4962C1052.63 49.9324 1046.81 51.8224 1040.84 55.3117C1034.95 58.7284 1029.59 64.035 1024.91 71.1591C1020.15 78.2831 1016.3 87.2245 1013.28 97.9832C1010.26 108.742 1008.75 121.682 1008.75 136.875C1008.75 147.706 1009.58 156.938 1011.24 164.717C1012.9 172.422 1015.17 179.037 1018.04 184.635C1020.91 190.232 1024.15 194.957 1027.85 198.81C1031.55 202.663 1035.41 206.08 1039.41 208.915C1043.56 211.75 1046.96 214.294 1049.68 216.475C1052.4 218.656 1054.51 220.618 1056.1 222.436C1057.69 224.253 1058.74 225.998 1059.35 227.67C1059.95 229.342 1060.25 231.377 1060.25 233.703C1060.25 238.21 1059.35 241.264 1057.46 242.863C1055.65 244.462 1053.61 245.189 1051.34 245.116C1046.43 244.971 1041.68 242.354 1037.07 237.265C1032.46 232.249 1028.76 226.579 1025.97 220.255L1001.72 273.903C1004.74 279.501 1008.14 284.662 1011.92 289.387C1015.69 294.112 1019.77 298.256 1024 301.818C1028.31 305.453 1032.76 308.288 1037.37 310.323C1041.98 312.359 1046.74 313.594 1051.49 313.958C1057.54 314.394 1063.43 312.94 1069.24 309.669L1069.39 309.814Z" fill="#232323"/>
<path d="M1157.83 314.03L1195.6 316.502L1193.93 188.197H1194.61L1227.39 318.61L1268.03 321.3V42.9536L1230.26 45.4252L1231.92 184.053H1231.24L1197.48 47.606L1157.83 50.223V314.03Z" fill="#232323"/>
<path d="M1289.7 242.063C1293.02 260.673 1297.63 276.738 1303.52 290.187C1309.34 303.635 1316.29 314.321 1324.37 322.099C1332.37 329.878 1341.06 334.167 1350.42 334.821C1359.79 335.475 1368.47 332.349 1376.48 325.443C1384.49 318.537 1391.51 308.36 1397.4 294.912C1403.29 281.463 1407.9 264.962 1411.3 245.48C1414.62 225.998 1416.28 204.262 1416.28 180.418C1416.28 156.575 1414.62 135.057 1411.3 116.011C1407.97 96.9654 1403.29 80.9 1397.4 67.8151C1391.51 54.8028 1384.56 44.9891 1376.48 38.3012C1368.47 31.686 1359.79 28.7056 1350.42 29.3598C1341.06 30.0141 1332.37 34.1576 1324.37 41.6451C1316.36 49.1326 1309.41 59.4552 1303.52 72.5402C1297.71 85.6251 1293.1 101.254 1289.7 119.501C1286.38 137.747 1284.72 158.029 1284.72 180.491C1284.72 202.954 1286.38 223.381 1289.7 242.063ZM1328.75 155.194C1329.88 147.488 1331.54 141.018 1333.58 135.711C1335.62 130.405 1338.11 126.189 1341.06 123.135C1343.93 120.082 1347.1 118.483 1350.42 118.41C1353.75 118.338 1356.84 119.719 1359.71 122.699C1362.58 125.607 1365 129.751 1367.19 135.057C1369.31 140.364 1370.97 146.906 1372.1 154.757C1373.23 162.608 1373.84 171.186 1373.84 180.564C1373.84 189.941 1373.23 199.028 1372.1 206.952C1370.97 214.875 1369.31 221.709 1367.19 227.452C1365.08 233.194 1362.58 237.556 1359.71 240.609C1356.84 243.662 1353.75 245.189 1350.42 245.044C1347.1 244.971 1343.93 243.299 1341.06 240.1C1338.19 236.902 1335.7 232.467 1333.58 226.725C1331.54 220.982 1329.88 214.221 1328.75 206.443C1327.62 198.592 1327.01 190.014 1327.01 180.564C1327.01 171.114 1327.62 162.972 1328.75 155.266V155.194Z" fill="#232323"/>
<path d="M1511.6 161.954H1512.28L1528.97 338.383L1569.07 341L1602 21L1561.22 23.6897L1548.38 201.718H1547.7L1532.82 25.5797L1491.2 28.3421L1477.53 201.136H1476.85L1464.17 30.0868L1422.02 32.8492L1454.27 333.513L1494.38 336.129L1511.6 161.954Z" fill="#232323"/>
</g>
<defs>
<clipPath id="clip0_706_3320">
<rect width="1619" height="362" fill="white"/>
</clipPath>
</defs>
</svg>
