<svg width="1290" height="286" viewBox="0 0 1290 286" fill="none" xmlns="http://www.w3.org/2000/svg">
<path d="M0 0L1289.06 91.5453V194.989L0 285.927V0Z" fill="#08BAA8"/>
<path d="M97.794 131.166C104.772 148.896 118.18 187.091 118.18 193.335C118.18 201.22 98.3868 210.473 74.8087 211.339C48.9046 212.296 35.1773 201.904 35.1773 180.026C35.1773 169.133 38.6889 151.266 39.5554 145.022L17.7103 139.051C13.6514 156.052 8.99957 171.184 8.99957 190.281C8.99957 225.878 25.3264 256.507 68.6975 253.818C89.0833 252.633 107.371 244.93 120.506 231.803C133.686 218.677 141.758 200.217 141.758 176.744C141.758 158.604 137.425 141.512 128.076 115.578L97.794 131.166ZM50.9569 103.363L72.802 128.431L94.9208 104.229L72.802 79.1609L50.9569 103.363Z" fill="#232323"/>
<path d="M139.113 41.194L144.631 47.7573L151.609 39.3709C157.446 40.009 169.349 48.9879 181.024 49.5349C192.973 50.1274 199.951 40.4192 205.788 24.4667L199.996 20.1367C195.892 26.2443 192.426 31.4858 183.67 30.9844C172.587 30.3919 162.965 20.5469 155.394 20C152.475 19.8177 149.83 21.185 147.823 25.1048L139.067 41.1484L139.113 41.194ZM252.033 152.36C252.033 130.893 236.025 112.023 216.004 95.8882C195.983 79.799 171.995 66.5812 155.987 57.9213L145.224 90.5555C177.832 106.736 199.449 120.546 212.903 131.804C226.357 143.062 231.692 151.859 231.692 157.51C231.692 162.57 206.381 164.347 182.484 164.666L164.424 164.894L161.505 198.987C170.261 202.77 177.513 204.639 188.869 204.274C219.424 203.134 252.033 186.635 252.033 152.36Z" fill="#232323"/>
<path d="M215.366 89.1426C215.366 128.34 196.439 164.302 164.698 164.94V183.809C179.246 183.49 198.491 173.189 214.043 155.961C229.64 138.686 241.543 114.621 241.543 85.1773V45.4328L215.32 44.0199V89.097L215.366 89.1426Z" fill="#232323"/>
<path d="M302.062 200.445V48.7145L272.966 47.1648V201.448L302.062 200.445Z" fill="#232323"/>
<path d="M398.701 146.07V53.9104L371.064 52.4063V154.912C371.064 190.236 393.775 197.346 411.835 196.708L420.546 193.745V161.749C407.138 161.931 398.701 159.607 398.701 146.07Z" fill="#232323"/>
<path d="M420.5 161.749L411.744 167.219V196.708C420.774 196.389 431.537 193.928 435.048 191.694L440.612 177.838C446.724 191.649 461.591 195.021 477.279 194.52L486.036 191.649V160.929C472.035 161.111 464.191 160.154 464.191 150.582V127.474L438.013 127.246V159.972C433.087 161.065 427.524 161.658 420.546 161.749L420.5 161.749ZM428.937 93.1991L450.783 113.755L472.901 94.5208L450.783 73.9649L428.937 93.1991Z" fill="#232323"/>
<path d="M485.99 160.929L477.234 166.17V194.474C489.182 194.064 509.523 189.461 527.628 177.337C544.502 188.367 559.643 191.694 583.814 190.874L592.571 188.185V159.607C582.948 159.744 574.237 159.835 566.667 159.425C574.511 152.542 578.023 145.341 578.023 138.595C578.023 128.021 569.859 112.296 541.036 111.613C529.088 111.385 516.592 113.846 500.265 118.404L490.368 143.244C495.02 149.124 500.538 154.912 506.102 160.382C499.125 160.701 492.101 160.792 486.036 160.883L485.99 160.929ZM515.679 142.743C520.924 141.239 530.821 141.011 533.739 141.011C540.124 141.011 553.532 142.242 553.532 145.66C553.532 148.805 540.717 154.092 536.932 155.368C528.495 152.725 521.791 148.759 515.679 142.743Z" fill="#232323"/>
<path d="M653.044 114.12C618.703 113.208 613.732 158.741 592.48 159.607L583.723 162.843V190.874C598.271 190.372 607.575 182.943 615.146 174.101C632.795 178.795 650.49 183.262 668.139 187.547L674.251 185.997C677.443 182.715 683.554 170.91 685.88 162.889C691.991 143.016 685.014 114.94 652.998 114.12H653.044ZM646.385 140.373C658.608 140.373 663.853 150.172 665.038 157.374L631.29 150.582C635.668 144.52 640.32 140.373 646.431 140.373H646.385Z" fill="#232323"/>
<path d="M831.727 77.1554V168.951C831.727 177.656 809.882 181.166 796.2 181.621C779.6 182.168 770.57 178.112 770.57 165.532C770.57 159.242 772.896 151.084 774.948 143.791L753.103 140.008C749.591 147.802 744.347 161.293 744.347 173.463C744.347 197.665 765.325 209.971 791.503 208.422C820.919 206.735 840.985 189.962 851.201 173.372C856.719 179.661 864.883 181.302 872.453 181.074L881.21 178.887V156.006C867.802 156.189 859.364 154.548 859.364 144.84V78.6595L831.682 77.1554H831.727Z" fill="#232323"/>
<path d="M881.21 156.006L872.453 159.972L872.453 181.074C882.669 180.71 894.298 178.841 897.764 177.2L904.195 165.623C913.225 176.289 932.744 179.023 956.869 178.203C981.314 177.383 1007.4 174.511 1027.33 168.996C1047.26 163.436 1061.08 155.414 1061.08 143.29C1061.08 130.026 1044.48 120.683 1020.9 120.09C1001.97 119.726 984.233 125.286 960.928 139.37C953.267 144.065 945.605 148.896 937.943 153.818C928.047 152.132 924.261 148.668 924.261 141.877V135.268L898.631 135.131V149.215C898.631 151.266 898.95 153.135 899.224 154.821C893.979 155.459 888.142 155.87 881.164 155.961L881.21 156.006ZM964.166 155.004C983.686 143.654 998.508 140.236 1009.86 140.236C1025.87 140.282 1039.28 147.027 1039.28 148.668C1039.28 151.403 1002.61 154.502 967.952 154.958C966.812 154.958 965.352 154.958 964.166 155.004Z" fill="#232323"/>
<path d="M1109.38 173.053V92.1052L1080.28 90.5555V174.055L1109.38 173.053Z" fill="#232323"/>
<path d="M1155.35 171.503L1186.49 170.455C1185.95 170.91 1185.63 171.321 1185.04 171.776C1176.6 178.659 1160.86 184.174 1123.01 189.461L1127.66 201.357C1134.09 201.083 1141.07 200.901 1147.78 200.491C1187.68 197.711 1204.28 185.176 1208.07 169.771L1212.44 169.634L1221.2 167.993V151.859L1207.2 152.041C1202.23 138.231 1187.09 129.844 1166.75 129.48C1142.3 129.024 1129.49 143.654 1129.49 154.958C1129.49 166.261 1139.38 172.141 1155.39 171.549L1155.35 171.503ZM1149.83 151.403C1149.83 149.215 1153.61 146.708 1160.04 146.663C1167.61 146.663 1177.78 149.306 1183.62 154.411L1161.5 154.73C1153.93 154.867 1149.87 154.046 1149.87 151.403H1149.83Z" fill="#232323"/>
<path d="M1212.35 169.589C1248.43 168.176 1273.19 156.827 1269.13 142.014L1265.62 129.069L1236.8 130.163L1239.99 142.925C1242.04 150.628 1235.34 151.631 1221.06 151.813L1212.31 153.272V169.543L1212.35 169.589ZM1217.92 113.026L1235.98 121.959L1251.12 115.76L1265.67 122.734L1284 115.396L1265.67 106.736L1251.12 112.798L1235.98 105.369L1217.92 113.026Z" fill="#232323"/>
</svg>
