<svg width="1290" height="286" viewBox="0 0 1290 286" fill="none" xmlns="http://www.w3.org/2000/svg">
<path d="M0 0L1289.06 91.5453V194.989L0 285.927V0Z" fill="#08BAA8"/>
<path d="M51.3131 57.1943C26.4255 55.9637 8.99957 72.5085 8.99957 100.585C8.99957 150.903 64.7352 147.895 64.7352 168.131C64.7352 176.426 55.863 182.534 46.1263 194.657L67.8746 215.441L89.6228 193.427L76.7468 181.03C80.2046 174.147 83.89 165.032 83.89 155.415C83.89 119.727 30.4293 114.805 30.4293 106.327C30.4293 102.225 42.7139 98.4424 55.59 98.7614C69.6035 99.0805 79.0217 103.912 89.6228 111.387L101.634 83.3105C89.0768 69.5004 71.0594 58.1059 51.3131 57.1488V57.1943Z" fill="#232323"/>
<path d="M136.168 46.8937C129.024 46.4835 126.158 44.706 126.158 41.3788C126.158 38.6441 128.433 37.6414 131.299 37.8237C135.849 38.0972 142.447 40.9686 144.175 42.7005L150.181 33.2659C149.044 27.4775 146.177 19.6381 138.17 19.0912C125.612 18.134 117.286 36.4564 117.286 47.5774C117.286 51.4515 118.15 55.6903 120.425 58.8351L113.282 62.3902L115.284 70.0017L137.305 67.6317H137.624L155.641 65.7174V45.891C147.36 46.8026 140.763 47.2583 136.213 46.9849L136.168 46.8937Z" fill="#232323"/>
<path d="M120.471 209.972L149.044 208.878V80.8493L120.471 79.801V209.972Z" fill="#232323"/>
<path d="M275.347 236.316L296.823 254L318.525 233.763L296.823 216.125L275.347 236.316Z" fill="#232323"/>
<path d="M372.851 114.395L387.137 126.655L405.155 112.207L387.137 97.0295L372.851 108.925L357.973 96.1635L340.228 110.885L357.973 126.336L372.851 114.395Z" fill="#232323"/>
<path d="M638.653 157.557C638.653 163.209 637.242 164.622 624.366 164.849L407.111 168.86C393.416 169.134 385.681 168.313 385.681 159.608V138.688H359.929V167.812C353.65 169.134 346.189 169.954 337.043 170.137C323.303 170.41 315.614 170.045 315.614 156.007V130.894L290.453 130.712V164.211C290.453 165.943 290.453 167.721 290.771 169.453C285.903 170.547 280.216 171.139 273.346 171.276C263.927 171.458 259.651 170.273 254.782 159.608L230.486 104.823L202.732 118.451C211.104 135.543 219.521 152.407 227.893 168.997C211.604 171.094 195.589 172.689 173.294 173.099L167.88 173.19L165.014 202.953C169.291 205.779 175.023 207.966 185.898 207.556C198.182 207.1 212.514 203.317 225.663 195.341L234.217 181.349L234.808 182.625C242.543 197.939 251.643 205.004 264.792 204.502C273.664 204.138 284.174 201.722 287.587 199.625L293.592 184.676C300.144 200.719 314.749 202.588 328.444 202.041C339.864 201.585 353.559 199.124 357.017 197.119L362.431 184.494C368.437 196.982 382.997 199.945 398.421 199.352L615.63 190.966C649.072 189.507 665.588 172.871 665.588 146.299V87.9139L638.425 86.6833V157.739L638.653 157.557Z" fill="#232323"/>
<path d="M980.892 121.414L995.178 128.797L1013.2 120.502L995.178 111.295L980.892 118.132L966.014 110.293L948.315 118.861L966.014 128.342L980.892 121.414Z" fill="#232323"/>
<path d="M1246.69 134.084C1212.98 133.446 1208.11 153.865 1187.23 154.594C1177.26 154.777 1171.85 153.683 1168.39 149.49L1158.38 137.275L1134.09 140.739L1142.41 151.951C1143.55 153.455 1144.69 154.822 1145.82 156.144C1143.55 156.235 1141.55 156.281 1139.23 156.372C1131.22 156.509 1123.8 155.962 1116.34 154.913C1118.62 151.905 1120.62 148.533 1122.35 145.069L1097.19 142.699C1091.18 151.951 1091.45 156.326 1080.31 156.509C1074.3 156.6 1065.15 155.415 1059.42 154.184C1061.42 152.179 1063.43 150.128 1065.7 147.849L1041.68 143.154C1031.67 153.592 1031.94 157.42 1015.11 157.694C1001.41 157.967 993.677 157.83 993.677 149.854V135.68L968.516 135.497V157.375C962.237 158.195 954.503 158.788 945.085 158.924C935.666 159.107 927.113 159.243 919.651 159.107C927.34 154.731 930.798 150.265 930.798 146.071C930.798 139.554 922.79 129.8 894.49 129.344C882.752 129.208 870.467 130.712 854.452 133.674L844.715 149.535C849.265 153.227 854.725 156.873 860.139 160.292C853.269 160.565 846.444 160.702 840.484 160.793C831.065 160.975 826.743 160.246 821.875 153.318C813.776 141.65 805.677 129.709 797.579 117.54L769.825 126.336C778.196 137.685 786.613 148.76 794.985 159.608C778.697 161.067 762.681 162.252 740.387 162.662L734.973 162.753L732.106 182.625C736.383 184.448 742.116 185.861 752.99 185.405C765.275 184.949 779.607 182.26 792.756 176.882L801.309 167.63L801.901 168.45C809.636 178.432 818.735 182.853 831.884 182.351C843.623 181.896 863.597 178.614 881.296 170.729C897.857 177.429 912.735 179.207 936.44 178.295C947.86 177.839 961.555 176.153 965.013 174.877L971.292 165.943C977.57 175.332 992.448 176.107 1006.42 175.56C1022.7 174.922 1033.53 172.962 1045.27 165.305C1053.87 170.319 1066.7 173.236 1079.85 172.734C1090.13 172.324 1097.87 170.045 1103.87 166.445C1117.89 170.592 1127.03 171.823 1135.04 171.504C1145.05 171.094 1151.92 168.313 1154.79 164.029C1160.66 167.63 1167.94 169.225 1178.45 168.906C1178.45 168.906 1178.63 168.906 1178.72 168.906C1178.86 168.906 1178.95 168.906 1179.08 168.906H1179.26C1193.1 168.222 1202.01 164.713 1209.34 160.702C1226.67 162.479 1244.01 164.12 1261.39 165.533L1267.4 164.713C1270.53 163.254 1276.54 158.104 1278.86 154.686C1284.87 146.254 1278 134.54 1246.56 133.948L1246.69 134.084ZM890.577 156.873C882.297 155.278 875.699 152.863 869.694 149.08C874.835 148.077 884.572 147.894 887.438 147.849C893.717 147.849 906.866 148.487 906.866 150.629C906.866 152.589 894.308 156.007 890.577 156.828V156.873ZM1225.26 150.128C1229.54 147.393 1234.14 145.57 1240.14 145.524C1252.15 145.524 1257.29 149.626 1258.43 152.726L1225.26 150.128Z" fill="#232323"/>
</svg>
