<svg width="1619" height="362" viewBox="0 0 1619 362" fill="none" xmlns="http://www.w3.org/2000/svg">
<path d="M1619 362V0L0 115.13V246.187L1619 362Z" fill="#08BAA8"/>
<path d="M16.0753 238.342L44.5983 240.01V198.438H45.4262L62.2088 241.077L96 243.013C88.6246 226.064 81.174 209.448 73.7987 193.166C78.6905 190.164 82.5287 185.826 85.1628 180.221C87.7968 174.549 89.0762 168.01 89.0762 160.536C89.0762 153.063 88.0226 146.523 85.9906 141.519C83.9586 136.514 81.2493 132.644 77.8627 129.774C74.5513 126.972 70.7131 125.037 66.4986 124.103C62.2841 123.168 57.9944 122.835 53.7046 123.102L16 125.304V238.408L16.0753 238.342ZM44.3725 154.064L51.3716 153.863C52.2747 153.863 53.2531 153.863 54.3067 154.064C55.3603 154.197 56.3387 154.531 57.2418 155.131C58.1449 155.732 58.8975 156.599 59.4243 157.8C60.0263 159.001 60.2521 160.67 60.2521 162.805C60.2521 164.94 59.8758 166.609 59.1985 167.943C58.5212 169.211 57.6181 170.212 56.6397 170.946C55.6613 171.68 54.5325 172.147 53.3283 172.414C52.1242 172.614 51.0706 172.748 50.0922 172.748H44.2973V154.064H44.3725Z" fill="#232323"/>
<path d="M104 244.363L167 248.013V211.042L131.958 210.163V198.2L162.81 198.673V164.271L131.958 164.744V153.727L164.867 152.916V116.013L104 119.527V244.43V244.363Z" fill="#232323"/>
<path d="M169 248.138L200.222 249.961L204.52 230.177L232.348 231.325L236.949 252.122L269 254.013C257.612 205.329 246.225 157.995 234.837 112.013L203.54 113.836C192.002 159.954 180.538 204.721 169 248.138ZM225.863 195.335L211.609 195.2L218.774 161.169L225.863 195.403V195.335Z" fill="#232323"/>
<path d="M310.009 255.934C316.484 256.337 322.808 255.195 328.831 252.576C334.854 249.957 340.124 245.591 344.792 239.614C349.384 233.57 353.074 225.712 355.859 215.975C358.645 206.237 360 194.551 360 181.119C360 166.345 358.57 154.122 355.709 144.518C352.848 134.915 348.933 127.326 344.114 121.752C339.296 116.178 333.725 112.417 327.4 110.469C321.076 108.454 314.451 107.716 307.6 108.119L275 109.999V253.919L310.084 255.934H310.009ZM309.708 150.16C315.881 150.025 320.85 152.577 324.539 157.883C328.229 163.255 330.111 170.777 330.111 180.515C330.111 192.201 328.229 200.662 324.539 205.699C320.85 210.736 315.505 213.154 308.578 213.02L303.158 212.885V150.294L309.708 150.16Z" fill="#232323"/>
<path d="M419.363 196.046C430.933 164.508 442.429 132.164 454 99.0126L419.438 101.03L406.214 148.639L392.389 102.644L357 104.728C367.97 134.316 378.94 164.71 389.909 195.777V260.264L419.287 262.013V196.113L419.363 196.046Z" fill="#232323"/>
<path d="M528.297 144.541L550 144.003V94.0126L477 98.2514V145.887L498.703 145.349V267.263L528.373 269.013V144.676L528.297 144.541Z" fill="#232323"/>
<path d="M554.685 219.613C557.166 231.296 560.55 241.367 564.836 249.827C569.122 258.287 574.31 265.001 580.175 269.902C586.115 274.804 592.507 277.489 599.425 277.959C606.343 278.362 612.734 276.482 618.674 272.118C624.615 267.754 629.728 261.375 634.089 252.915C638.45 244.456 641.834 234.116 644.315 221.829C646.797 209.542 648 195.912 648 180.939C648 165.966 646.797 152.404 644.315 140.452C641.834 128.434 638.45 118.363 634.089 110.171C629.728 101.98 624.615 95.803 618.674 91.6402C612.734 87.4774 606.343 85.6646 599.425 86.0674C592.507 86.4703 586.115 89.0888 580.175 93.8559C574.235 98.5559 569.122 105.069 564.836 113.26C560.55 121.518 557.091 131.321 554.685 142.735C552.203 154.217 551 166.906 551 181.006C551 195.106 552.203 207.93 554.685 219.613ZM583.559 165.161C584.386 160.327 585.589 156.231 587.168 152.874C588.672 149.517 590.552 146.898 592.657 145.018C594.763 143.071 597.094 142.064 599.575 141.997C602.057 141.93 604.312 142.802 606.418 144.682C608.523 146.495 610.328 149.114 611.907 152.404C613.486 155.761 614.689 159.857 615.516 164.758C616.343 169.659 616.795 175.098 616.795 180.939C616.795 186.781 616.343 192.555 615.516 197.523C614.689 202.492 613.411 206.789 611.907 210.415C610.328 214.04 608.523 216.793 606.418 218.673C604.312 220.62 602.057 221.56 599.575 221.493C597.094 221.426 594.838 220.419 592.657 218.404C590.552 216.39 588.672 213.57 587.168 210.012C585.664 206.453 584.461 202.156 583.559 197.255C582.732 192.353 582.281 186.915 582.281 181.006C582.281 175.098 582.732 169.995 583.559 165.161Z" fill="#232323"/>
<path d="M746.033 285.016C749.332 284.211 752.481 283.003 755.48 281.527C758.479 279.984 761.328 278.172 763.952 275.89C766.651 273.676 768.976 271.193 771 268.442V158.329L731.037 158.866V210.802L745.058 211.071V226.235C744.308 227.175 743.258 227.846 741.984 228.248C740.709 228.651 739.434 228.852 738.16 228.852C731.187 228.651 726.089 224.222 722.939 215.566C719.79 206.91 718.216 195.839 718.216 182.217C718.216 175.44 718.741 169.266 719.79 163.697C720.84 158.128 722.265 153.363 723.989 149.404C725.714 145.446 727.738 142.292 729.987 140.145C732.237 137.997 734.561 136.857 736.96 136.789C740.559 136.722 743.633 138.064 746.107 140.883C748.582 143.701 750.681 147.593 752.481 152.424L769.575 104.648C765.752 95.9248 760.728 89.2147 754.655 84.4505C748.507 79.7534 742.059 77.6062 735.236 78.0759C728.638 78.4785 722.49 81.2967 716.791 86.5306C711.018 91.6974 706.07 98.8773 701.796 108.003C697.522 117.129 694.148 127.932 691.674 140.48C689.2 153.028 688 166.918 688 182.284C688 197.65 689.2 211.54 691.674 224.088C694.148 236.636 697.522 247.439 701.796 256.431C706.07 265.49 711.168 272.535 717.091 277.635C722.939 282.735 729.313 285.553 736.211 285.956C739.51 286.157 742.809 285.821 746.033 285.016Z" fill="#232323"/>
<path d="M786 283.394L848 287.013V228.247L813.514 227.376V208.145L843.877 208.614V153.803L813.514 154.272V136.515L845.901 135.711V77.0126L786 80.497V283.394Z" fill="#232323"/>
<path d="M904.297 135.113L926 134.574V72.0126L853 76.2552V136.393L874.703 135.854V289.262L904.373 291.013V135.113H904.297Z" fill="#232323"/>
<path d="M1004.67 297.673C1008.96 294.578 1012.79 289.732 1016.25 283.07C1019.63 276.407 1022.41 267.928 1024.51 257.631C1026.62 247.334 1027.67 235.221 1027.67 221.223C1027.67 209.244 1026.69 199.149 1024.81 191.073C1022.94 182.998 1020.53 176.201 1017.6 170.682C1014.67 165.164 1011.51 160.722 1008.06 157.29C1004.6 153.858 1001.29 150.897 998.211 148.407C995.205 145.849 992.951 143.763 991.598 142.081C990.245 140.398 989.569 137.841 989.569 134.409C989.569 130.774 990.246 128.15 991.523 126.467C992.801 124.852 994.529 123.977 996.708 123.91C999.038 123.843 1001.59 125.458 1004.45 128.688C1007.3 131.986 1009.78 136.831 1011.74 143.292L1030 93.4242C1025.49 82.4546 1020.23 74.2443 1014.29 68.7259C1008.36 63.2074 1002.5 60.6501 996.708 61.0539C992.425 61.3231 988.141 63.0055 983.783 66.0339C979.424 69.0623 975.516 73.8405 971.984 80.3011C968.527 86.7617 965.596 94.9047 963.417 104.73C961.162 114.556 960.11 126.4 960.11 140.331C960.11 150.291 960.711 158.77 961.989 165.837C963.191 172.903 964.92 178.96 967.024 184.074C969.128 189.189 971.533 193.496 974.238 196.996C976.944 200.562 979.8 203.591 982.73 206.215C985.736 208.84 988.292 211.128 990.321 213.08C992.35 215.031 993.928 216.848 995.055 218.464C996.182 220.079 997.009 221.694 997.46 223.174C997.911 224.655 998.136 226.539 998.136 228.693C998.136 232.798 997.46 235.557 996.107 237.038C994.755 238.518 993.252 239.191 991.598 239.191C987.991 239.057 984.459 236.701 981.077 232.192C977.695 227.616 974.915 222.434 972.886 216.714L955 266.111C957.255 271.225 959.734 275.936 962.515 280.176C965.296 284.416 968.302 288.184 971.458 291.415C974.614 294.645 977.921 297.202 981.303 298.952C984.684 300.769 988.216 301.778 991.749 301.98C996.182 302.25 1000.54 300.836 1004.82 297.741L1004.67 297.673Z" fill="#232323"/>
<path d="M1081.59 130.711L1103 130.174V62.0126L1031 66.2433V132.054L1052.41 131.517V299.267L1081.67 301.013V130.711H1081.59Z" fill="#232323"/>
<path d="M1094 301.233L1125.22 303.047L1129.52 267.495L1157.35 268.638L1161.95 305.131L1194 307.013L1159.84 58.0126L1128.54 59.8272L1094 301.233ZM1150.86 205.195L1136.61 205.06L1143.77 144.507L1150.86 205.195Z" fill="#232323"/>
<path d="M1201.08 307.32L1229.6 308.996V218.088H1230.43L1247.21 310.068L1281 312.013L1258.8 206.221C1263.69 199.718 1267.53 190.4 1270.16 178.332C1272.8 166.265 1274.08 152.253 1274.08 136.364C1274.08 120.476 1273.02 106.397 1270.99 95.6033C1268.96 84.8097 1266.25 76.2954 1262.86 69.9935C1259.55 63.6916 1255.71 59.401 1251.5 57.1216C1247.28 54.8422 1242.99 53.8366 1238.7 54.0377L1201 56.2501V307.387L1201.08 307.32ZM1229.37 121.012L1236.37 120.811C1237.27 120.811 1238.25 120.945 1239.31 121.28C1240.36 121.615 1241.34 122.42 1242.24 123.761C1243.14 125.034 1243.9 127.046 1244.42 129.66C1245.03 132.342 1245.25 135.895 1245.25 140.521C1245.25 145.147 1244.88 148.834 1244.2 151.583C1243.52 154.399 1242.62 156.544 1241.64 158.086C1240.66 159.695 1239.53 160.7 1238.33 161.17C1237.12 161.639 1236.07 161.907 1235.09 161.907H1229.3V121.012H1229.37Z" fill="#232323"/>
<path d="M1331.3 123.948L1353 123.411V47.0126L1280 51.2421V125.291L1301.7 124.754V313.267L1331.37 315.013V123.948H1331.3Z" fill="#232323"/>
<path d="M1362 317.378L1424 321.013V243.2L1389.51 242.324V216.746L1419.88 217.217V144.654L1389.51 145.125V121.499L1421.9 120.691V43.0126L1362 46.5128V317.445V317.378Z" fill="#232323"/>
<path d="M1472.01 323.97C1478.48 324.375 1484.81 321.881 1490.83 316.558C1496.85 311.234 1502.12 302.743 1506.79 291.22C1511.38 279.629 1515.07 264.602 1517.86 246.138C1520.64 227.674 1522 205.706 1522 180.301C1522 152.47 1520.57 129.423 1517.71 111.229C1514.85 93.0341 1510.93 78.6132 1506.11 67.8312C1501.3 57.0493 1495.72 49.6367 1489.4 45.5934C1483.08 41.4828 1476.45 39.6634 1469.6 40.0677L1437 41.9545V321.881L1472.08 323.903L1472.01 323.97ZM1471.71 120.932C1477.88 120.798 1482.85 125.784 1486.54 136.027C1490.23 146.27 1492.11 160.691 1492.11 179.29C1492.11 201.595 1490.23 217.633 1486.54 227.337C1482.85 237.041 1477.5 241.825 1470.58 241.623L1465.16 241.488V121.135L1471.71 121V120.932Z" fill="#232323"/>
<path d="M1587.65 177.3C1589.61 172.008 1591.35 166.179 1592.7 159.882C1594.06 153.585 1595.12 146.684 1595.87 139.114C1596.62 131.544 1597 122.902 1597 113.121C1597 96.6402 1595.94 82.7726 1593.91 71.5177C1591.87 60.3298 1589.24 51.3527 1585.99 44.7204C1582.83 38.088 1579.21 33.3985 1575.29 30.7187C1571.37 28.039 1567.45 26.8331 1563.68 27.0341C1559.46 27.3021 1555.39 29.3119 1551.47 33.1305C1547.55 36.9491 1544 42.8445 1540.84 50.8168C1537.67 58.789 1535.03 68.972 1532.92 81.4997C1530.81 93.9605 1529.53 108.9 1529 126.385L1555.61 137.372C1555.61 128.864 1556.22 121.361 1557.35 114.862C1558.48 108.364 1560.44 105.081 1563.15 105.014C1564.58 105.014 1565.79 106.086 1566.77 108.431C1567.82 110.776 1568.28 114.795 1568.28 120.624C1568.28 123.906 1567.9 127.055 1567.22 130.003C1566.54 132.951 1565.49 135.898 1564.21 138.98L1562.1 144.005C1560.36 148.158 1558.78 152.379 1557.27 156.666C1555.76 160.954 1554.48 165.576 1553.43 170.534C1552.37 175.491 1551.47 181.052 1550.86 187.215C1550.26 193.379 1549.96 200.614 1549.96 208.854V224.062L1576.42 224.531V213.745C1576.42 210.127 1576.72 206.643 1577.32 203.361C1577.93 200.078 1579.13 196.594 1580.79 192.977C1583.2 187.952 1585.47 182.861 1587.43 177.568L1587.65 177.3ZM1569.41 331.452C1571.29 328.906 1572.88 325.49 1574.31 321.135C1575.74 316.78 1576.8 311.555 1577.63 305.525C1578.38 299.496 1578.76 292.797 1578.76 285.628C1578.76 278.46 1578.38 272.163 1577.63 265.999C1576.87 259.903 1575.74 254.544 1574.31 249.921C1572.88 245.298 1571.29 241.681 1569.41 239.001C1567.52 236.321 1565.56 234.981 1563.38 234.914C1561.19 234.914 1559.23 236.12 1557.35 238.733C1555.46 241.279 1553.88 244.83 1552.45 249.318C1551.01 253.807 1549.96 259.099 1549.2 265.061C1548.45 271.091 1548 277.522 1548 284.356C1548 291.189 1548.37 298.089 1549.2 304.119C1549.96 310.215 1551.09 315.44 1552.45 319.929C1553.88 324.418 1555.46 327.968 1557.35 330.715C1559.23 333.462 1561.19 334.869 1563.38 335.003C1565.49 335.137 1567.52 333.931 1569.41 331.452Z" fill="#232323"/>
</svg>
