<svg width="37" height="38" viewBox="0 0 37 38" fill="none" xmlns="http://www.w3.org/2000/svg">
<g clip-path="url(#clip0_711_1078)">
<path d="M18.1333 0.866699C8.11866 0.866699 0 8.98536 0 19C0 27.5038 5.85489 34.6397 13.753 36.5995V24.5416H10.014V19H13.753V16.6122C13.753 10.4404 16.5463 7.57966 22.6057 7.57966C23.7547 7.57966 25.737 7.80524 26.5479 8.03009V13.053C26.12 13.0081 25.3765 12.9856 24.4532 12.9856C21.48 12.9856 20.3311 14.112 20.3311 17.0402V19H26.2542L25.2365 24.5416H20.3311V37.0006C29.31 35.9163 36.2674 28.2712 36.2674 19C36.2667 8.98536 28.148 0.866699 18.1333 0.866699Z" fill="#E6E6E6"/>
</g>
<defs>
<clipPath id="clip0_711_1078">
<rect width="36.2667" height="36.2667" fill="white" transform="translate(0 0.866699)"/>
</clipPath>
</defs>
</svg>
