<svg width="37" height="38" viewBox="0 0 37 38" fill="none" xmlns="http://www.w3.org/2000/svg">
<g clip-path="url(#clip0_711_1080)">
<path d="M36.4243 11.5238C36.336 9.59359 36.0295 8.27542 35.5812 7.12217C35.1261 5.91219 34.4122 4.81621 33.4897 3.91032C32.5841 2.98783 31.4878 2.27368 30.2779 1.81825C29.1243 1.37028 27.8064 1.06398 25.8762 0.97627C23.9424 0.887728 23.3246 0.866699 18.4 0.866699C13.4754 0.866699 12.8576 0.887728 10.9238 0.975716C8.99355 1.06398 7.67566 1.37056 6.52213 1.8188C5.31215 2.27396 4.21617 2.98783 3.31028 3.91032C2.38779 4.81593 1.67365 5.91191 1.21821 7.12189C0.770243 8.27542 0.463944 9.59359 0.376233 11.5235C0.287691 13.4576 0.266663 14.0752 0.266663 18.9998C0.266663 23.9246 0.287691 24.5425 0.376233 26.4763C0.464221 28.4062 0.770797 29.7244 1.21904 30.8779C1.6742 32.0876 2.38807 33.1839 3.31056 34.0895C4.21617 35.012 5.31243 35.7258 6.52241 36.181C7.67566 36.6295 8.99383 36.9358 10.924 37.0241C12.8581 37.1123 13.4757 37.1331 18.4003 37.1331C23.3249 37.1331 23.9427 37.1123 25.8765 37.0241C27.8067 36.9358 29.1246 36.6295 30.2781 36.181C32.7139 35.2391 34.6394 33.3136 35.5812 30.8779C36.0297 29.7244 36.336 28.4062 36.4243 26.4763C36.5123 24.5422 36.5333 23.9246 36.5333 19C36.5333 14.0752 36.5123 13.4576 36.4243 11.5238ZM33.1602 26.3277C33.0797 28.0958 32.7841 29.0559 32.5359 29.6948C31.9258 31.2763 30.676 32.5262 29.0944 33.1363C28.4556 33.3845 27.4954 33.68 25.7274 33.7605C23.8157 33.8479 23.2421 33.8662 18.4 33.8662C13.5576 33.8662 12.9843 33.8479 11.0723 33.7605C9.30455 33.68 8.34443 33.3845 7.70527 33.1363C6.9178 32.8455 6.20532 32.382 5.62039 31.7796C5.01803 31.1947 4.55457 30.4825 4.26377 29.6948C4.01557 29.0559 3.72006 28.0958 3.63955 26.3277C3.55239 24.4157 3.53385 23.8422 3.53385 19.0003C3.53385 14.1582 3.55239 13.5849 3.63955 11.6727C3.72034 9.90459 4.01557 8.94447 4.26377 8.30558C4.55457 7.51784 5.01831 6.80536 5.62039 6.22043C6.20532 5.61807 6.9178 5.15461 7.70555 4.86408C8.34443 4.61561 9.30455 4.32038 11.0726 4.23958C12.9846 4.15243 13.5582 4.13389 18.4 4.13389H18.3997C23.2416 4.13389 23.8151 4.15243 25.7274 4.23986C27.4954 4.32038 28.4553 4.61589 29.0944 4.86408C29.8819 5.15488 30.5944 5.61834 31.1793 6.22043C31.7817 6.80536 32.2451 7.51784 32.5357 8.30558C32.7841 8.94447 33.0797 9.90459 33.1602 11.6727C33.2473 13.5846 33.2659 14.1582 33.2659 19C33.2659 23.8422 33.2476 24.4155 33.1602 26.3277Z" fill="#E6E6E6"/>
<path d="M18.3997 9.68823C13.2571 9.68823 9.08817 13.8574 9.08817 19C9.08817 24.1427 13.2571 28.3116 18.3997 28.3116C23.5426 28.3116 27.7115 24.1427 27.7115 19C27.7115 13.8574 23.5426 9.68823 18.3997 9.68823ZM18.3997 25.0444C15.0617 25.0441 12.3554 22.3381 12.3556 18.9998C12.3556 15.6618 15.0617 12.9554 18.4 12.9554C21.7383 12.9557 24.4443 15.6618 24.4443 18.9998C24.4443 22.3381 21.738 25.0444 18.3997 25.0444Z" fill="#E6E6E6"/>
<path d="M30.2555 9.32048C30.2555 10.5222 29.2812 11.4964 28.0795 11.4964C26.8776 11.4964 25.9034 10.5222 25.9034 9.32048C25.9034 8.11852 26.8776 7.14429 28.0795 7.14429C29.2812 7.14429 30.2555 8.11852 30.2555 9.32048Z" fill="#E6E6E6"/>
</g>
<defs>
<clipPath id="clip0_711_1080">
<rect width="36.2667" height="36.2667" fill="white" transform="translate(0.266663 0.866699)"/>
</clipPath>
</defs>
</svg>
