<svg width="461" height="49" viewBox="0 0 461 49" fill="none" xmlns="http://www.w3.org/2000/svg">
<g clip-path="url(#clip0_711_1067)">
<path d="M180.277 0H180.143H168.304H168.17V11.1992V12.1819V18.2826V24.3735V30.4645H168.304H180.143H180.277H192.259V36.5554H180.277H168.304V48.747H180.277H192.259H204.231V42.6463V36.5554V30.4645V18.2826H192.259H180.277H180.143V12.1819H180.277H192.259H204.231V0H192.259H180.277Z" fill="#08BAA8"/>
<path d="M222.831 0H210.858V11.1992V12.1819V18.2826V24.3735V30.4645H210.887V36.5554H210.858V48.747H222.831H234.803H246.776V36.5554H234.803H222.869V30.4645H222.831V24.3735V18.2826V12.1819H234.803H246.776V0H234.803H222.831Z" fill="#08BAA8"/>
<path d="M395.094 0H382.366V30.4645H382.404V36.5554H382.366V48.7373H394.338V42.6463H394.377V30.4645H394.338V30.445H419.048V0H395.094ZM407.066 18.2631H394.338V12.1916H407.066V18.2631Z" fill="#08BAA8"/>
<path d="M449.027 12.1916H461V0H449.027H437.055H425.073V12.1916V18.2826V24.3735V30.4645H425.111V36.5554H425.073V48.747H437.055H449.027H461V36.5554H449.027H437.084V30.4645H449.027H461V18.2826H449.027H437.055V12.1916H449.027Z" fill="#08BAA8"/>
<path d="M253.403 48.6108H376.724V0.126465H253.403V48.6108ZM264.725 20.248L365.401 12.9116V35.8256L264.725 28.5379V20.2383V20.248Z" fill="#08BAA8"/>
<path d="M0 24.5584V24.5C0 10.0802 10.4329 0 24.9109 0H24.9683C30.8398 0 36.061 1.76112 40.3834 4.68983L38.0692 9.61318C33.9764 6.91799 29.7114 5.68229 25.2552 5.68229H25.1978C15.2334 5.68229 6.34009 12.1916 6.34009 24.5V24.5584C6.39747 36.8084 15.1761 43.3761 25.1404 43.3761H25.1978C29.6445 43.3761 33.9764 42.1501 38.0692 39.4452L40.3834 44.4269C36.2332 47.1805 31.1936 49 24.9683 49H24.9109C10.4329 49 0.0573764 38.9782 0 24.5584Z" fill="#08BAA8"/>
<path d="M40.3834 24.4416V24.3832C40.3834 10.8392 49.4585 0 64.0416 0H64.099C78.6917 0 87.8241 10.8489 87.8241 24.3832V24.4416C87.7667 37.9273 78.6343 49 64.099 49H64.0416C49.5158 49 40.3834 37.9176 40.3834 24.4416ZM64.1659 43.3177C74.6658 43.3177 81.8952 35.1154 81.8952 24.3832V24.3249C81.8952 13.5344 74.7806 5.68229 64.1659 5.68229H64.0512C53.3792 5.68229 46.2645 13.5344 46.2645 24.3249V24.3832C46.3219 35.1056 53.4366 43.3177 64.0512 43.3177H64.1659Z" fill="#08BAA8"/>
<path d="M130.761 24.3249V24.3832C130.703 39.4063 120.682 49 104.788 49H91.2093V0.0681152H104.788C120.739 0.0681152 130.761 9.47697 130.761 24.3249ZM124.411 24.3249C124.411 12.6781 117.354 5.68229 105.553 5.68229H97.0139V43.3956H105.553C117.296 43.3956 124.354 36.2732 124.411 24.393V24.3346V24.3249Z" fill="#08BAA8"/>
<path d="M134.433 0.0681152H163.609V5.68229H140.247V20.9486H161.362V26.5627H140.247V43.3955H163.848V49.0097H134.433V0.0681152Z" fill="#08BAA8"/>
</g>
<defs>
<clipPath id="clip0_711_1067">
<rect width="461" height="49" fill="white"/>
</clipPath>
</defs>
</svg>
