<svg width="37" height="38" viewBox="0 0 37 38" fill="none" xmlns="http://www.w3.org/2000/svg">
<g clip-path="url(#clip0_711_1084)">
<path d="M26.3318 0.866699H20.2198V25.57C20.2198 28.5135 17.8691 30.9313 14.9437 30.9313C12.0183 30.9313 9.66752 28.5135 9.66752 25.57C9.66752 22.6793 11.966 20.314 14.787 20.2089V14.0068C8.57049 14.1119 3.55554 19.2103 3.55554 25.57C3.55554 31.9825 8.67497 37.1334 14.9959 37.1334C21.3168 37.1334 26.4362 31.9299 26.4362 25.57V12.903C28.7348 14.585 31.5557 15.5836 34.5333 15.6362V9.43404C29.9363 9.27637 26.3318 5.49201 26.3318 0.866699Z" fill="#E6E6E6"/>
</g>
<defs>
<clipPath id="clip0_711_1084">
<rect width="36.2667" height="36.2667" fill="white" transform="translate(0.533325 0.866699)"/>
</clipPath>
</defs>
</svg>
