<svg width="38" height="38" viewBox="0 0 38 38" fill="none" xmlns="http://www.w3.org/2000/svg">
<path d="M0.799988 37.1334L3.34923 27.8204C1.77617 25.0943 0.949588 22.0041 0.951099 18.8353C0.955632 8.92848 9.01741 0.866699 18.9227 0.866699C23.7296 0.86821 28.2418 2.74048 31.6357 6.13745C35.0282 9.53443 36.8959 14.0496 36.8944 18.8519C36.8899 28.7603 28.8281 36.8221 18.9227 36.8221C15.9156 36.8206 12.9523 36.0665 10.3275 34.634L0.799988 37.1334ZM10.7688 31.3806C13.3014 32.8841 15.7192 33.7847 18.9167 33.7863C27.1492 33.7863 33.8555 27.086 33.8601 18.8489C33.8631 10.5952 27.1885 3.90403 18.9288 3.90101C10.6902 3.90101 3.98843 10.6013 3.98541 18.8368C3.9839 22.1991 4.96914 24.7166 6.62381 27.3504L5.11421 32.863L10.7688 31.3806ZM27.9758 23.1239C27.864 22.9365 27.5648 22.8247 27.1145 22.5995C26.6657 22.3743 24.4579 21.2879 24.0454 21.1383C23.6344 20.9887 23.3352 20.9131 23.0345 21.3634C22.7353 21.8122 21.8739 22.8247 21.6125 23.1239C21.3511 23.4231 21.0882 23.4608 20.6394 23.2357C20.1906 23.0105 18.7429 22.5375 17.0278 21.0068C15.6935 19.816 14.7914 18.3457 14.5299 17.8954C14.2685 17.4466 14.5027 17.2033 14.7264 16.9797C14.9289 16.7787 15.1752 16.4553 15.4003 16.1924C15.6285 15.9325 15.7026 15.7451 15.8537 15.4444C16.0033 15.1452 15.9292 14.8823 15.8159 14.6571C15.7026 14.4335 14.805 12.2227 14.4317 11.3236C14.066 10.4487 13.6958 10.5665 13.4208 10.5529L12.5595 10.5378C12.2603 10.5378 11.7737 10.6496 11.3627 11.0999C10.9516 11.5503 9.7911 12.6352 9.7911 14.846C9.7911 17.0567 11.4004 19.1919 11.6241 19.4911C11.8492 19.7903 14.7899 24.3267 19.2945 26.2715C20.3659 26.7339 21.203 27.0104 21.8543 27.2175C22.9302 27.559 23.9094 27.5106 24.6831 27.3958C25.5459 27.2673 27.3396 26.3093 27.7144 25.2606C28.0891 24.2103 28.0891 23.3112 27.9758 23.1239Z" fill="#E6E6E6"/>
</svg>
