<svg width="37" height="38" viewBox="0 0 37 38" fill="none" xmlns="http://www.w3.org/2000/svg">
<g clip-path="url(#clip0_711_1088)">
<path d="M35.9722 11.7467C35.9722 11.7467 35.618 9.24625 34.5272 8.14834C33.1459 6.70334 31.6018 6.69625 30.8934 6.61125C25.8218 6.24292 18.2072 6.24292 18.2072 6.24292H18.193C18.193 6.24292 10.5784 6.24292 5.50677 6.61125C4.79844 6.69625 3.25427 6.70334 1.87302 8.14834C0.782189 9.24625 0.435106 11.7467 0.435106 11.7467C0.435106 11.7467 0.0667725 14.6863 0.0667725 17.6188V20.3671C0.0667725 23.2996 0.428022 26.2392 0.428022 26.2392C0.428022 26.2392 0.782189 28.7396 1.86594 29.8375C3.24719 31.2825 5.06052 31.2329 5.86802 31.3888C8.77219 31.665 18.2001 31.75 18.2001 31.75C18.2001 31.75 25.8218 31.7358 30.8934 31.3746C31.6018 31.2896 33.1459 31.2825 34.5272 29.8375C35.618 28.7396 35.9722 26.2392 35.9722 26.2392C35.9722 26.2392 36.3334 23.3067 36.3334 20.3671V17.6188C36.3334 14.6863 35.9722 11.7467 35.9722 11.7467ZM14.453 23.7033V13.5104L24.2493 18.6246L14.453 23.7033Z" fill="#E6E6E6"/>
</g>
<defs>
<clipPath id="clip0_711_1088">
<rect width="36.2667" height="36.2667" fill="white" transform="translate(0.0667725 0.866699)"/>
</clipPath>
</defs>
</svg>
