<svg width="24" height="24" viewBox="0 0 24 24" fill="none" xmlns="http://www.w3.org/2000/svg">
<rect x="0.125" y="0.125" width="23.75" height="23.75" rx="3.875" stroke="#DF2A54" stroke-width="0.25"/>
<path d="M12.1266 4.0025L14.0567 4.00262C14.3399 4.00263 14.8613 3.98976 15.1272 4.02096C15.2946 4.03891 15.4578 4.08691 15.6087 4.16271C16.1583 4.44547 16.252 4.90581 16.4598 5.45117L16.965 6.77652L17.9483 9.35818C18.1627 9.92046 18.3766 10.4709 18.5639 11.0438C18.6097 11.1841 18.6711 11.3213 18.7156 11.4617C18.6134 11.3359 18.5351 11.1806 18.4168 11.0391C17.3978 9.81954 15.5057 9.52623 14.0314 9.36101C13.3284 9.28206 12.6235 9.22145 11.9174 9.17925C11.1703 9.1287 10.3862 9.05714 9.6385 8.98999C8.02689 8.80099 6.36128 8.66259 4.88087 7.92646C3.91849 7.44792 3.0727 6.61688 3 5.47263C4.41299 6.11978 5.86304 6.68008 7.34228 7.1505C7.82953 7.30768 8.31995 7.45457 8.81322 7.59106C8.97277 7.63612 9.46104 7.75677 9.57666 7.81195C9.79797 7.19334 10.061 6.56045 10.2901 5.94173C10.4403 5.56871 10.5646 5.18365 10.7276 4.8163C11.0124 4.17476 11.4912 4.01275 12.1266 4.0025Z" fill="#181947"/>
<path d="M6.97269 14.5257C6.89198 14.2854 6.74038 14.01 6.63983 13.8066C6.54186 13.6084 5.92384 12.2122 5.96196 12.0881C6.00168 12.0941 6.01887 12.104 6.0485 12.1359C6.47239 12.5923 6.93137 13.0205 7.35484 13.4768C7.73848 13.3584 8.25844 13.3671 8.65847 13.2756C8.76502 13.2513 8.88861 13.2466 8.99566 13.2213C9.82427 13.0251 10.6662 12.898 11.4954 12.7031C11.6626 12.6639 11.9114 12.6033 12.0794 12.5963C11.7872 12.7442 11.4564 12.8545 11.1698 13.0036C10.4555 13.3751 9.71175 13.6739 8.97874 14.0045C8.7834 14.0926 8.5599 14.1846 8.37676 14.2931C8.94167 14.8062 10.5637 15.6511 11.2933 15.9294C11.53 16.0179 11.773 16.088 12.0202 16.139C12.1871 15.0171 13.6019 13.9408 14.5867 13.5519C14.6315 13.5821 14.7008 13.7947 14.7251 13.8581L14.9771 14.5108C15.3167 15.3893 15.6882 16.3212 16.0094 17.2023L14.9178 17.2042C14.7337 17.2044 14.466 17.1971 14.2906 17.213C14.0775 17.221 13.8114 17.2138 13.5929 17.2137L12.1955 17.2131L11.3638 17.2147C11.2172 17.215 11.0032 17.2221 10.8656 17.2055C10.6453 17.6971 10.4597 18.2576 10.2494 18.7578C10.1706 18.9452 10.0713 19.2515 9.97409 19.4161C9.88867 19.5587 9.77531 19.6818 9.64105 19.7779C9.23549 20.0626 8.61012 19.9851 8.1296 19.985L6.22485 19.9847H5.33716C5.25411 19.9845 4.96399 20.0084 4.92645 19.9444C4.99332 19.7004 5.14452 19.3896 5.23228 19.1415C5.4006 18.666 5.58662 18.1911 5.7707 17.7212C6.17836 16.6588 6.57903 15.5935 6.97269 14.5257Z" fill="#DF2A54"/>
<path d="M14.5867 13.5519C14.8735 13.4043 15.7443 13.1468 16.0745 13.0895C17.0259 12.9243 18.1681 12.8967 19.1066 13.1437C19.3069 13.2061 19.4116 13.2789 19.4966 13.4723C19.7661 14.0848 19.9595 14.7506 20.2217 15.3628C20.7917 16.693 21.2679 18.0637 21.7928 19.4132C21.8688 19.6088 21.94 19.7982 22 20C21.5982 19.9772 21.1316 19.9871 20.7246 19.987L18.6676 19.9868C18.3602 19.9868 17.9224 20.0058 17.6239 19.9858C16.8951 19.9374 16.6605 18.8748 16.4308 18.2754C16.2935 17.9193 16.1536 17.5642 16.0111 17.2102C15.838 17.229 15.3776 17.2209 15.1895 17.2183C14.9467 17.2151 14.5213 17.2329 14.2906 17.213C14.466 17.1971 14.7337 17.2044 14.9179 17.2042L16.0094 17.2023C15.6882 16.3212 15.3167 15.3893 14.9771 14.5108L14.7251 13.8581C14.7008 13.7947 14.6315 13.582 14.5867 13.5519Z" fill="#181947"/>
<path d="M4.04962 9.23645C4.15836 9.26251 4.25872 9.29586 4.36317 9.33576C4.90342 9.54211 5.44782 9.71526 6.00135 9.8806C7.34964 10.2752 8.72342 10.5738 10.1127 10.7742C10.5939 10.8436 11.0481 10.9105 11.536 10.9385C11.7013 10.9429 12.1464 10.9876 12.313 11.0227C12.1552 11.047 11.5695 11.0419 11.3803 11.0361C11.1652 11.0525 10.8158 11.046 10.5782 11.0558L7.81002 11.1568L6.16667 11.22C5.90736 11.2314 5.62909 11.2601 5.37009 11.2535C5.3267 11.2599 5.28976 11.2021 5.2682 11.1706C4.84918 10.5589 4.50293 9.81941 4.04962 9.23645Z" fill="#181947"/>
<path d="M11.5361 10.9385C11.7013 10.9429 12.1464 10.9876 12.313 11.0227C12.1552 11.047 11.5695 11.0419 11.3803 11.0361C11.4603 11.0211 11.6285 10.9966 11.7066 10.9891L11.699 10.979C11.6253 10.9713 11.6016 10.9715 11.5361 10.9385Z" fill="black"/>
</svg>
