<svg width="24" height="24" viewBox="0 0 24 24" fill="none" xmlns="http://www.w3.org/2000/svg">
<rect width="24" height="24" rx="4" fill="#72993F"/>
<path d="M9.92956 11.932C9.92956 12.0273 9.97721 12.075 10.0725 12.1226C11.0256 13.0757 12.0263 14.0765 12.9794 15.0296C13.5512 15.6014 13.9325 16.2686 14.2661 16.9834C14.5043 17.5076 14.7426 18.0795 14.8855 18.6513C14.9332 18.7943 14.9332 18.9849 14.9809 19.1755C15.0762 19.4138 15.0762 19.6997 15.1238 19.938C15.1715 20.2716 15.2191 20.6052 15.2191 20.9387C15.2191 21.2247 15.2191 21.4629 15.2191 21.7489V21.7965C15.2191 21.8442 15.2191 21.9395 15.1715 21.9871C15.0762 22.0348 15.0285 21.9395 14.9809 21.8918C14.552 21.4629 14.0754 20.9864 13.6466 20.5575C12.6458 19.5568 11.6451 18.556 10.6444 17.5553C9.92956 16.8404 9.21475 16.078 8.45229 15.3631C7.35626 14.2671 6.30788 13.2187 5.21184 12.1226C5.16419 12.075 5.02123 12.0273 5.11653 11.932C5.25949 11.8844 5.49776 11.8367 5.68838 11.8367C6.45084 11.7414 7.26095 11.7414 8.02341 11.7891C8.30933 11.7891 8.59526 11.7891 8.83352 11.8367C9.21475 11.8367 9.54833 11.8844 9.92956 11.932Z" fill="white"/>
<path d="M9.92951 11.9321C9.59594 11.8845 9.21471 11.8368 8.88113 11.7892C8.59521 11.7415 8.30929 11.7415 8.07102 11.7415C7.26091 11.7415 6.49845 11.6939 5.68833 11.8368C5.45006 11.8845 5.25945 11.8845 5.02118 11.9798C4.97353 11.9321 5.02118 11.9321 5.02118 11.9321C5.25945 11.6939 5.54537 11.4079 5.78364 11.1697C6.02191 10.9314 6.26018 10.6931 6.49845 10.5025C6.73671 10.2642 6.97498 9.9783 7.26091 9.74003C7.40387 9.59706 7.54683 9.4541 7.68979 9.31114C8.07102 8.9299 8.45225 8.54866 8.78582 8.16743C9.31002 7.64322 9.83421 7.11902 10.4061 6.54717C11.3115 5.64173 12.2169 4.73629 13.1223 3.83086C13.6942 3.259 14.266 2.68715 14.8378 2.11529L14.8855 2.06764C14.9332 2.01998 14.9808 1.97233 15.0285 2.01998C15.0761 2.01998 15.1238 2.11529 15.1238 2.16295C15.1238 2.30591 15.1238 2.49653 15.1238 2.63949C15.1238 3.11604 15.1238 3.59258 15.0761 4.06913C15.0285 4.54568 14.9332 4.97457 14.8378 5.40346C14.6949 5.97531 14.5043 6.49951 14.266 7.02372C13.8371 7.97681 13.2176 8.73928 12.4552 9.4541C11.645 10.2642 10.8349 11.0744 10.0248 11.8845C9.97717 11.8845 9.92951 11.8845 9.92951 11.9321Z" fill="white"/>
<path d="M18.126 11.8844C18.1736 11.8844 18.1736 11.932 18.2213 11.932C18.2689 11.9797 18.2689 12.0273 18.2213 12.075C18.0783 12.218 17.8877 12.3609 17.7447 12.5515C17.4588 12.8375 17.1729 13.1234 16.887 13.4093C16.6487 13.6476 16.4104 13.8859 16.1245 14.1718C15.9815 14.3148 15.8862 14.3148 15.7433 14.1718C15.0761 13.5046 14.3613 12.8375 13.6942 12.1226C13.6465 12.075 13.5512 11.9797 13.6942 11.932C14.0277 11.9797 14.3613 11.8367 14.6949 11.7414C15.0285 11.6461 15.362 11.5508 15.6956 11.4555C16.3628 11.3125 17.0299 11.3125 17.6494 11.5984C17.7924 11.6461 17.8877 11.7414 18.0306 11.7891C18.0783 11.8844 18.0783 11.8844 18.126 11.8844Z" fill="white"/>
<path d="M18.0783 11.8367C17.9353 11.7891 17.84 11.6937 17.6971 11.6461C17.0776 11.3602 16.4104 11.3602 15.7433 11.5031C15.4097 11.5984 15.0761 11.6937 14.7425 11.7891C14.409 11.8844 14.0754 11.9797 13.7418 11.9797C13.8848 11.7891 14.0277 11.6461 14.2184 11.5031C14.7425 10.9313 15.3144 10.4071 15.8862 9.83522C16.0292 9.69226 16.0292 9.69226 16.1245 9.83522C16.744 10.5024 17.3635 11.1219 18.0307 11.7414C18.0307 11.7891 18.0783 11.7891 18.0783 11.8367Z" fill="white"/>
<path d="M18.1259 11.8844C18.1259 11.8844 18.0782 11.8844 18.0782 11.8367C18.0782 11.8367 18.0782 11.8844 18.1259 11.8844Z" fill="white"/>
</svg>
